# xmcd CD database file
#
# Track frame offsets:
#	150
#	17402
#	37375
#
# Disc length: 737 seconds
#
# Revision: 0
# Processed by: cddbd v1.5.2PL0 Copyright (c) Steve Scherf et al.
# Submitted via: CDex 1.51
#
DISCID=1e02df03
DTITLE=Rick Monroe - Rick Monroe (Singel)
DYEAR=2007
DGENRE=Country
TTITLE0=Not That Complicated 
TTITLE1=Just A Pretty Picture
TTITLE2=Love Will Bring You Back
EXTD=YEAR: 2007
EXTT0=
EXTT1=
EXTT2=
PLAYORDER=
